<svg width="50" height="50" fill="none" xmlns="http://www.w3.org/2000/svg"><g clip-path="url(#a)"><path d="M42.686 7.314c-9.755-9.752-25.619-9.752-35.373 0-9.75 9.753-9.75 25.62 0 35.373C12.19 47.563 18.595 50 25 50c6.405 0 12.808-2.437 17.686-7.312 9.752-9.752 9.752-25.62 0-35.373Zm-7.37 25.056a2.082 2.082 0 0 1-1.474 3.558 2.079 2.079 0 0 1-1.474-.61L25 27.946l-7.366 7.368a2.086 2.086 0 0 1-2.947 0 2.082 2.082 0 0 1 0-2.947L22.053 25l-7.368-7.368a2.082 2.082 0 0 1 0-2.948 2.082 2.082 0 0 1 2.947 0L25 22.053l7.368-7.367a2.082 2.082 0 0 1 2.947 0 2.082 2.082 0 0 1 0 2.947L27.947 25l7.369 7.37Z" fill="#F26600"/></g><defs><clipPath id="a"><path fill="#fff" d="M0 0h50v50H0z"/></clipPath></defs></svg>