<svg width="92" height="75" fill="none" xmlns="http://www.w3.org/2000/svg"><path d="M38.396 30.183c0-1.195 1.208-2.244 2.81-2.244s2.81 1.05 2.81 2.244v14.634c0 1.194-1.207 2.245-2.81 2.245-1.602 0-2.81-1.05-2.81-2.245V30.183ZM28.91 22.45c0-1.194 1.208-2.244 2.81-2.244 1.603 0 2.81 1.05 2.81 2.244v30.1c0 1.195-1.207 2.245-2.81 2.245-1.602 0-2.81-1.05-2.81-2.244v-30.1ZM19.323 15.216c0-1.194 1.208-2.244 2.81-2.244s2.81 1.05 2.81 2.244v44.568c0 1.194-1.208 2.244-2.81 2.244s-2.81-1.05-2.81-2.244V15.216ZM9.838 22.45c0-1.194 1.207-2.244 2.81-2.244 1.602 0 2.81 1.05 2.81 2.244v30.1c0 1.195-1.208 2.245-2.81 2.245-1.603 0-2.81-1.05-2.81-2.244v-30.1ZM.25 29.684c0-1.194 1.208-2.245 2.81-2.245s2.81 1.05 2.81 2.245v15.632c0 1.195-1.208 2.244-2.81 2.244S.25 46.51.25 45.316V29.684ZM67.057 15.216c0-1.194 1.208-2.244 2.81-2.244s2.81 1.05 2.81 2.244v44.568c0 1.194-1.208 2.244-2.81 2.244s-2.81-1.05-2.81-2.244V15.216ZM57.47 22.45c0-1.194 1.207-2.244 2.81-2.244 1.602 0 2.81 1.05 2.81 2.244v30.1c0 1.195-1.208 2.245-2.81 2.245-1.603 0-2.81-1.05-2.81-2.244v-30.1ZM47.984 26.358c0-1.194 1.208-2.244 2.81-2.244s2.81 1.05 2.81 2.244v22.284c0 1.195-1.208 2.244-2.81 2.244s-2.81-1.05-2.81-2.244V26.358ZM76.543 22.45c0-1.194 1.207-2.244 2.81-2.244 1.602 0 2.81 1.05 2.81 2.244v30.1c0 1.195-1.208 2.245-2.81 2.245-1.603 0-2.81-1.05-2.81-2.244v-30.1ZM86.13 29.684c0-1.194 1.208-2.245 2.81-2.245s2.81 1.05 2.81 2.245v15.632c0 1.195-1.208 2.244-2.81 2.244s-2.81-1.05-2.81-2.244V29.684Z" fill="#fff" stroke="#F26600" stroke-width=".5"/></svg>