<svg width="39" height="39" fill="none" xmlns="http://www.w3.org/2000/svg"><path d="M32.607 5.71a18.826 18.826 0 0 0-27.012 0c-7.46 7.615-7.46 19.961 0 27.578a18.824 18.824 0 0 0 27.012 0c7.457-7.616 7.457-19.962 0-27.577ZM16.72 26.99c0 1.242-.987 2.248-2.202 2.248-1.216 0-2.202-1.006-2.202-2.248V12.01c0-1.24.986-2.247 2.202-2.247 1.215 0 2.202 1.007 2.202 2.248v14.98Zm9.164 0c0 1.242-.987 2.248-2.202 2.248-1.214 0-2.201-1.006-2.201-2.248V12.01c0-1.24.986-2.247 2.201-2.247s2.202 1.007 2.202 2.248v14.98Z" fill="#F26600"/></svg>